<?xml version="1.0" standalone="no"?>
<!DOCTYPE svg PUBLIC "-//W3C//DTD SVG 20010904//EN"
 "http://www.w3.org/TR/2001/REC-SVG-20010904/DTD/svg10.dtd">
<svg version="1.0" xmlns="http://www.w3.org/2000/svg"
 width="512.000000pt" height="512.000000pt" viewBox="0 0 512.000000 512.000000"
 preserveAspectRatio="xMidYMid meet">
<metadata>
Created by potrace 1.16, written by Peter Selinger 2001-2019
</metadata>
<g transform="translate(0.000000,512.000000) scale(0.100000,-0.100000)"
fill="#000000" stroke="none">
<path d="M4205 5101 c-427 -79 -894 -289 -1418 -638 -87 -58 -164 -115 -172
-126 -29 -42 -10 -118 37 -151 12 -9 20 -17 17 -19 -59 -51 -255 -187 -268
-187 -10 0 -44 9 -76 20 -66 23 -110 25 -141 7 -35 -19 -296 -252 -446 -396
-107 -103 -139 -140 -144 -165 -7 -42 16 -90 55 -114 l28 -17 -102 -110 -103
-110 -65 18 c-82 21 -105 21 -139 -1 -38 -24 -268 -301 -416 -500 -84 -114
-84 -156 3 -211 l44 -28 -75 -112 c-56 -84 -79 -111 -92 -107 -112 32 -155 31
-190 -7 -33 -35 -166 -268 -246 -432 -132 -270 -217 -504 -266 -735 -31 -142
-39 -401 -17 -516 39 -204 146 -372 276 -432 67 -31 215 -42 314 -22 329 64
812 347 1413 827 964 771 2046 1911 2643 2787 78 116 101 157 101 183 0 45
-30 73 -78 73 -47 0 -52 -5 -167 -175 -498 -738 -1425 -1742 -2310 -2500 -764
-655 -1404 -1043 -1730 -1047 -84 -2 -126 15 -178 71 -95 102 -137 233 -137
431 0 273 83 569 264 945 71 147 194 375 215 397 3 4 32 1 64 -8 124 -32 282
-64 318 -64 46 0 69 27 69 81 0 46 -21 65 -90 80 -30 6 -60 14 -67 18 -12 6
106 192 127 199 25 9 322 -132 420 -198 80 -54 88 -66 49 -74 -17 -3 -58 -6
-90 -6 -47 0 -63 -4 -80 -21 -28 -28 -19 -75 23 -113 30 -28 33 -28 115 -23
150 9 227 66 227 169 0 63 -37 116 -129 186 -82 61 -297 169 -475 238 -69 26
-127 49 -129 51 -9 6 341 443 354 443 2 0 82 -20 177 -44 341 -87 574 -127
753 -127 152 -1 230 24 271 86 21 33 22 111 1 152 -55 104 -251 222 -597 358
-80 31 -146 58 -148 60 -4 3 298 281 388 358 l65 54 135 -34 c74 -19 200 -47
280 -63 472 -95 690 -75 730 69 23 83 -29 165 -158 252 -75 50 -269 148 -364
184 -27 10 -48 21 -48 25 0 11 224 155 380 245 379 217 731 357 1035 410 116
20 309 21 402 1 139 -29 279 -117 303 -192 35 -104 -12 -310 -119 -522 -37
-74 -39 -105 -6 -137 32 -33 84 -34 112 -2 28 30 116 232 149 342 20 67 28
120 31 205 4 102 2 122 -18 175 -43 117 -195 230 -374 280 -94 27 -390 30
-520 6z m-1184 -1082 c66 -34 143 -79 171 -102 45 -35 49 -41 32 -48 -33 -13
-168 -10 -286 7 -109 15 -298 51 -305 58 -2 1 47 39 109 83 130 93 101 93 279
2z m-1058 -815 c214 -87 427 -209 427 -243 0 -25 -196 -18 -385 14 -130 22
-329 66 -338 74 -6 6 167 201 179 201 3 0 55 -21 117 -46z"/>
<path d="M3615 4545 c-50 -49 -17 -135 51 -135 47 0 74 29 74 80 0 75 -73 107
-125 55z"/>
<path d="M3195 4365 c-50 -49 -17 -135 51 -135 47 0 74 29 74 80 0 75 -73 107
-125 55z"/>
<path d="M3547 4198 c-22 -18 -36 -59 -30 -91 11 -59 95 -78 132 -31 28 36 27
79 -4 109 -26 27 -71 33 -98 13z"/>
<path d="M2536 3617 c-52 -53 -20 -137 52 -137 44 0 72 30 72 78 0 50 -17 71
-62 78 -30 5 -41 2 -62 -19z"/>
<path d="M2140 3540 c-25 -25 -26 -80 -2 -110 23 -28 83 -31 112 -5 27 24 28
95 2 118 -26 24 -87 22 -112 -3z"/>
<path d="M2600 3320 c-25 -25 -26 -80 -2 -110 23 -28 83 -31 112 -5 27 24 28
95 2 118 -26 24 -87 22 -112 -3z"/>
<path d="M1718 2730 c-25 -15 -41 -72 -29 -103 20 -53 96 -65 130 -21 56 71
-24 169 -101 124z"/>
<path d="M1306 2627 c-52 -53 -20 -137 52 -137 44 0 72 30 72 78 0 50 -17 71
-62 78 -30 5 -41 2 -62 -19z"/>
<path d="M1816 2387 c-52 -53 -20 -137 52 -137 44 0 72 30 72 78 0 50 -17 71
-62 78 -30 5 -41 2 -62 -19z"/>
<path d="M670 1710 c-25 -25 -26 -80 -2 -110 23 -28 83 -31 112 -5 27 24 28
95 2 118 -26 24 -87 22 -112 -3z"/>
<path d="M1066 1667 c-52 -53 -20 -137 52 -137 44 0 72 30 72 78 0 50 -17 71
-62 78 -30 5 -41 2 -62 -19z"/>
<path d="M535 1320 c-22 -25 -25 -81 -5 -105 24 -29 58 -36 95 -21 27 11 35
22 40 49 7 35 -6 74 -29 89 -23 16 -83 8 -101 -12z"/>
</g>
</svg>
